<svg version="1.1" id="Layer_1" xmlns="http://www.w3.org/2000/svg" xmlns:xlink="http://www.w3.org/1999/xlink" x="0px" y="0px"
	 width="100%" viewBox="0 0 1080 1080" enable-background="new 0 0 1080 1080" xml:space="preserve">
<path fill="#000000" opacity="1.000000" stroke="none" 
	d="
M1.000000,383.000000 
	C1.000000,255.348007 1.000000,128.196014 1.000000,1.022012 
	C360.943756,1.022012 720.887512,1.022012 1080.915649,1.022012 
	C1080.915649,360.902191 1080.915649,720.804443 1080.915649,1080.853271 
	C721.000061,1080.853271 361.000031,1080.853271 1.000000,1080.853271 
	C1.000000,848.445312 1.000000,615.972656 1.000000,383.000000 
M214.246124,247.269913 
	C211.281219,252.923599 208.117050,258.483643 205.404526,264.255920 
	C202.375671,270.701324 199.756851,277.339447 196.296875,284.229004 
	C194.528748,288.712585 192.606018,293.142395 191.023682,297.690582 
	C187.378799,308.167358 183.627472,318.619659 180.426514,329.234833 
	C176.983688,340.652130 173.564377,352.129486 171.160446,363.792084 
	C168.767014,375.403748 167.532669,387.262939 166.000717,399.041016 
	C164.527451,410.367737 162.682083,421.700378 162.165726,433.083313 
	C161.533218,447.026459 162.112534,461.024628 162.017014,475.793945 
	C162.067200,476.868073 162.117386,477.942230 162.021225,479.933228 
	C162.080490,484.276611 162.139771,488.619965 162.363174,493.791595 
	C163.574997,503.994049 164.366913,514.268311 166.096741,524.382141 
	C168.712936,539.678467 170.993713,555.143005 175.209229,570.028564 
	C181.332764,591.651489 188.373520,613.079102 196.318817,634.100281 
	C202.078049,649.337646 209.695877,663.900574 216.930801,678.544006 
	C223.865372,692.579529 230.937592,706.583496 238.759903,720.133301 
	C245.946487,732.581848 253.728241,744.755920 262.123535,756.420593 
	C273.309601,771.962830 284.905548,787.258362 297.135223,801.987549 
	C309.427856,816.792542 322.345459,831.126160 335.668060,845.015198 
	C348.996643,858.910522 362.913422,872.272034 377.046906,885.354919 
	C387.936249,895.434814 399.153656,905.258362 410.976166,914.203369 
	C422.068817,922.596069 433.805328,930.286072 445.893341,937.170532 
	C456.609375,943.273621 467.917084,948.604797 479.480530,952.877686 
	C490.986603,957.129395 503.136475,959.638855 515.654358,963.190735 
	C520.242737,970.181213 524.846069,977.162048 529.379822,984.187744 
	C529.633606,984.580933 529.340271,985.348633 529.254944,985.935242 
	C528.933167,988.148621 528.293213,990.362305 528.316406,992.570129 
	C528.378052,998.412659 526.564697,1002.162292 520.789856,1003.186951 
	C511.410706,1004.851135 509.958405,1012.812622 506.488922,1019.263000 
	C506.203400,1019.793823 507.019073,1021.135254 507.602814,1021.881287 
	C512.921936,1028.679199 520.969238,1028.002319 528.197205,1028.774414 
	C541.030701,1030.145142 553.712524,1028.255615 566.126709,1024.893066 
	C573.148865,1022.991089 577.945251,1018.737732 577.046936,1014.286255 
	C575.872192,1008.464783 571.066956,1006.588501 566.816711,1003.969116 
	C559.414734,999.407471 551.221985,995.684631 547.471863,987.023132 
	C546.994629,985.920959 547.609253,984.346130 548.202637,982.452881 
	C554.204407,979.232117 560.184326,975.969788 566.212524,972.799255 
	C578.741882,966.209351 591.200745,959.474854 603.874817,953.174438 
	C612.407288,948.932922 621.645142,946.006958 629.875916,941.286743 
	C641.808899,934.443298 653.657349,927.216736 664.563416,918.874634 
	C680.371338,906.783081 696.025208,894.306580 710.433899,880.614807 
	C729.320801,862.667664 747.333923,843.746948 764.963562,824.547791 
	C779.188110,809.056946 793.311829,793.274658 805.623291,776.276611 
	C820.633911,755.551941 834.476074,733.871826 847.375793,711.760315 
	C858.616211,692.493042 868.684814,672.424500 877.726624,652.025330 
	C886.782532,631.594421 894.235474,610.426453 901.776184,589.361511 
	C905.563904,578.780640 908.534302,567.827454 910.872864,556.829712 
	C913.237366,545.709534 913.652893,534.162598 916.197998,523.096008 
	C920.180969,505.777191 919.632690,488.154572 920.773560,470.676147 
	C921.589417,458.176178 920.391602,445.539032 919.976868,432.966919 
	C919.770203,426.704346 919.672119,420.403015 918.873779,414.203064 
	C917.523010,403.712463 915.855225,393.251831 913.951477,382.846161 
	C911.852722,371.374298 909.699829,359.888855 906.895508,348.576660 
	C904.427063,338.619415 901.176697,328.844482 897.998840,319.077789 
	C894.518921,308.382568 891.485657,297.447662 886.892578,287.230957 
	C879.906860,271.692200 872.075134,256.503632 863.966614,241.510330 
	C858.583130,231.555878 852.455750,221.946991 845.987732,212.652130 
	C839.750977,203.689728 832.930420,195.090439 825.857910,186.763474 
	C816.677063,175.954239 807.520752,165.029999 797.375854,155.160629 
	C787.515625,145.568253 776.752747,136.806717 765.774841,128.486954 
	C754.365723,119.840347 742.551086,111.619888 730.309021,104.212578 
	C718.622253,97.141235 706.298096,91.065033 693.987244,85.102486 
	C684.737976,80.622765 675.263733,76.425110 665.532654,73.168472 
	C653.178345,69.033966 640.556824,65.583656 627.876892,62.568604 
	C615.281494,59.573643 602.566101,56.482094 589.729431,55.261032 
	C574.918213,53.852146 559.916748,54.443687 544.070801,54.021111 
	C537.741211,54.014961 531.401062,53.771797 525.084290,54.053013 
	C512.715027,54.603683 500.358826,55.446789 487.174042,56.021545 
	C485.933533,56.343735 484.708160,56.750633 483.450195,56.974907 
	C471.978668,59.020096 460.306061,60.290039 449.075134,63.242992 
	C434.807404,66.994415 420.613586,71.389122 406.908875,76.820885 
	C392.263977,82.625298 377.805267,89.198776 364.022888,96.808708 
	C344.177765,107.766159 325.196503,120.223534 307.325775,135.191452 
	C300.891174,141.125885 294.165771,146.778458 288.083710,153.054504 
	C276.110229,165.409836 264.067474,177.745438 252.873657,190.792938 
	C244.864334,200.128647 237.915558,210.424179 231.006348,220.638321 
	C225.247238,229.152206 220.233612,238.170364 214.246124,247.269913 
z"/>
<path fill="#A0E8B9" opacity="1.000000" stroke="none" 
	d="
M515.004028,962.912292 
	C503.136475,959.638855 490.986603,957.129395 479.480530,952.877686 
	C467.917084,948.604797 456.609375,943.273621 445.893341,937.170532 
	C433.805328,930.286072 422.068817,922.596069 410.976166,914.203369 
	C399.153656,905.258362 387.936249,895.434814 377.046906,885.354919 
	C362.913422,872.272034 348.996643,858.910522 335.668060,845.015198 
	C322.345459,831.126160 309.427856,816.792542 297.135223,801.987549 
	C284.905548,787.258362 273.309601,771.962830 262.123535,756.420593 
	C253.728241,744.755920 245.946487,732.581848 238.759903,720.133301 
	C230.937592,706.583496 223.865372,692.579529 216.930801,678.544006 
	C209.695877,663.900574 202.078049,649.337646 196.318817,634.100281 
	C188.373520,613.079102 181.332764,591.651489 175.209229,570.028564 
	C170.993713,555.143005 168.712936,539.678467 166.096741,524.382141 
	C164.366913,514.268311 163.574997,503.994049 162.491989,493.031921 
	C162.469727,487.853607 162.318649,483.434967 162.167572,479.016357 
	C162.117386,477.942230 162.067200,476.868073 162.435852,475.472443 
	C163.868790,476.576202 165.607315,477.923279 165.770996,479.440308 
	C166.463852,485.861115 168.547104,490.232391 175.237961,493.291260 
	C182.076019,496.417450 187.872772,501.169281 196.190109,500.173431 
	C200.193771,499.694061 204.243591,500.809479 206.587112,505.387878 
	C207.954208,508.058655 210.082321,507.145508 212.020355,504.793152 
	C213.656464,502.807281 216.128006,500.496704 218.408615,500.288483 
	C221.969406,499.963318 224.021698,498.239349 225.490784,495.655060 
	C227.619720,491.910004 230.085510,489.271027 234.835953,489.749664 
	C236.094513,489.876495 237.420090,489.202759 238.729706,488.986145 
	C241.569519,488.516541 242.207764,487.303314 241.086197,484.459625 
	C239.524261,480.499359 238.418304,476.337555 237.429214,472.187653 
	C237.167877,471.091064 238.052109,469.721436 238.359909,468.652313 
	C240.582382,470.011353 242.098755,471.600952 243.804260,471.839752 
	C247.073273,472.297424 250.457504,472.122589 253.777740,471.930481 
	C255.107742,471.853546 256.395020,471.037994 257.701721,470.558655 
	C256.686218,469.493652 255.668869,468.430481 254.655807,467.363220 
	C253.821777,466.484619 252.316360,465.578033 252.345566,464.726227 
	C252.376816,463.813782 253.815582,462.908539 254.711227,462.076782 
	C255.929245,460.945648 257.214844,459.887238 258.471466,458.797638 
	C256.907837,458.173370 255.234695,457.731598 253.809647,456.876373 
	C252.208115,455.915192 250.446106,454.809662 249.545029,453.295959 
	C249.185364,452.691742 250.669189,450.478516 251.788300,449.607178 
	C254.514236,447.484955 257.414368,445.531036 260.441559,443.868439 
	C262.934265,442.499390 264.304108,441.228363 263.308838,438.026306 
	C262.085480,434.090454 264.004364,432.080719 268.135223,431.964203 
	C269.635742,431.921875 271.121521,431.357635 273.418213,430.855896 
	C269.579468,426.392120 268.897644,422.725037 273.091461,418.991364 
	C274.051331,418.136841 273.322632,415.590881 274.147369,414.331970 
	C275.447113,412.347961 277.323608,409.424896 279.098694,409.320221 
	C284.088776,409.025909 284.436707,406.888214 283.536102,402.838074 
	C282.681641,398.995514 285.817352,393.402771 289.356720,391.980713 
	C291.842316,390.982056 292.607391,389.590515 290.873260,387.494141 
	C287.739838,383.706177 289.298767,382.376373 293.420715,381.819458 
	C294.591156,381.661316 295.678986,380.630493 296.728455,379.891602 
	C298.920532,378.348236 300.854919,376.053680 303.275574,375.315857 
	C306.415985,374.358673 307.173676,372.730713 306.951080,369.880005 
	C306.427795,363.177612 307.202423,362.465912 314.215942,362.948853 
	C319.189056,363.291290 321.454529,361.407104 322.027466,356.541290 
	C322.140137,355.584534 322.332977,353.923309 322.765015,353.827087 
	C327.808807,352.703857 326.613953,348.389191 327.523956,345.106567 
	C327.948669,343.574707 328.561310,341.891479 329.615021,340.772400 
	C334.303802,335.792816 339.182861,330.992493 344.049927,326.069946 
	C340.663910,321.194305 342.316162,318.187347 346.543213,315.882111 
	C350.027008,313.982208 353.383270,312.070343 353.738098,307.278290 
	C353.818970,306.186615 356.188904,305.299805 357.449554,304.251740 
	C359.321045,302.695892 362.263855,301.378998 362.781616,299.435730 
	C364.534271,292.857727 369.562927,291.136047 375.052521,290.131287 
	C379.187531,289.374451 380.998108,286.863220 381.913696,283.237976 
	C382.482635,280.985321 382.448486,278.442108 383.527710,276.496857 
	C384.529907,274.690491 386.651093,272.273743 388.278168,272.274841 
	C393.273376,272.278137 394.717804,269.566406 394.942535,265.483459 
	C395.168152,261.384949 397.139435,260.132202 401.127258,260.405670 
	C403.249634,260.551239 406.198547,260.057739 407.488098,258.663239 
	C410.600037,255.298050 414.152252,254.909622 418.305176,254.923859 
	C424.912659,254.946487 426.891937,253.445496 427.810394,247.307556 
	C428.417419,243.250793 430.099609,242.585678 433.517639,243.966095 
	C434.373138,244.311615 435.379639,244.283218 436.274719,244.420242 
	C438.264435,238.061447 439.408447,231.456833 448.203278,231.577988 
	C450.552307,231.610336 452.304382,230.132050 450.705597,226.733719 
	C448.738525,222.552567 450.665375,220.042984 455.325043,220.055008 
	C458.346283,220.062805 460.577057,219.735336 462.127563,216.477386 
	C462.786163,215.093552 465.704773,214.736404 467.634888,214.016129 
	C472.630859,212.151703 477.676086,210.414352 482.626740,208.438614 
	C483.353668,208.148499 483.584320,206.762695 484.201416,206.012924 
	C485.022705,205.015015 485.875214,203.963898 486.926697,203.247223 
	C493.547852,198.734360 500.229340,194.310074 506.882935,189.844727 
	C507.149902,189.665573 507.364166,189.387268 507.557495,189.121994 
	C512.276367,182.647156 515.018738,181.824646 522.253662,184.515915 
	C523.956787,185.149445 525.843994,185.892822 527.550171,185.705963 
	C528.738770,185.575775 530.710388,183.915237 530.682373,182.988220 
	C530.599121,180.234726 530.465820,176.939590 528.951782,174.891296 
	C526.224609,171.201874 528.141663,169.888184 530.980713,168.535538 
	C535.391663,166.433929 540.700745,167.089569 544.550903,162.634674 
	C546.567810,160.300888 548.098328,158.989792 547.585754,155.701355 
	C547.337158,154.106506 548.933228,150.691650 549.456055,150.738876 
	C557.296082,151.446777 557.365112,145.464569 560.590820,140.746353 
	C564.334839,135.269897 564.807861,130.428650 565.020325,124.770027 
	C565.130066,121.847198 566.217529,118.445366 565.108704,116.083702 
	C560.797607,106.901443 557.761719,97.634537 558.926697,87.318283 
	C559.077271,85.984375 558.686340,83.763054 557.814148,83.283081 
	C554.054993,81.214394 553.196716,77.969437 552.853821,74.138962 
	C552.754578,73.030190 551.786926,71.526985 550.807007,71.052872 
	C547.044067,69.232361 546.380188,65.963913 547.148376,62.625832 
	C547.935547,59.205002 547.274658,56.591846 544.997864,54.166573 
	C559.916748,54.443687 574.918213,53.852146 589.729431,55.261032 
	C602.566101,56.482094 615.281494,59.573643 627.876892,62.568604 
	C640.556824,65.583656 653.178345,69.033966 665.532654,73.168472 
	C675.263733,76.425110 684.737976,80.622765 693.987244,85.102486 
	C706.298096,91.065033 718.622253,97.141235 730.309021,104.212578 
	C742.551086,111.619888 754.365723,119.840347 765.774841,128.486954 
	C776.752747,136.806717 787.515625,145.568253 797.375854,155.160629 
	C807.520752,165.029999 816.677063,175.954239 825.857910,186.763474 
	C832.930420,195.090439 839.750977,203.689728 845.987732,212.652130 
	C852.455750,221.946991 858.583130,231.555878 863.966614,241.510330 
	C872.075134,256.503632 879.906860,271.692200 886.892578,287.230957 
	C891.485657,297.447662 894.518921,308.382568 897.998840,319.077789 
	C901.176697,328.844482 904.427063,338.619415 906.895508,348.576660 
	C909.699829,359.888855 911.852722,371.374298 913.951477,382.846161 
	C915.855225,393.251831 917.523010,403.712463 918.873779,414.203064 
	C919.672119,420.403015 919.770203,426.704346 919.976868,432.966919 
	C920.391602,445.539032 921.589417,458.176178 920.773560,470.676147 
	C919.632690,488.154572 920.180969,505.777191 916.197998,523.096008 
	C913.652893,534.162598 913.237366,545.709534 910.872864,556.829712 
	C908.534302,567.827454 905.563904,578.780640 901.776184,589.361511 
	C894.235474,610.426453 886.782532,631.594421 877.726624,652.025330 
	C868.684814,672.424500 858.616211,692.493042 847.375793,711.760315 
	C834.476074,733.871826 820.633911,755.551941 805.623291,776.276611 
	C793.311829,793.274658 779.188110,809.056946 764.963562,824.547791 
	C747.333923,843.746948 729.320801,862.667664 710.433899,880.614807 
	C696.025208,894.306580 680.371338,906.783081 664.563416,918.874634 
	C653.657349,927.216736 641.808899,934.443298 629.875916,941.286743 
	C621.645142,946.006958 612.407288,948.932922 603.874817,953.174438 
	C591.200745,959.474854 578.741882,966.209351 566.212524,972.799255 
	C560.184326,975.969788 554.204407,979.232117 547.646484,982.696289 
	C543.865295,981.621460 546.025696,980.757263 547.359436,979.846985 
	C558.024109,972.568237 570.546631,968.580139 580.667114,960.079956 
	C585.192810,956.278992 592.186218,955.524902 597.850647,952.931519 
	C601.452759,951.282471 604.610657,948.687744 608.087708,946.730164 
	C609.669434,945.839539 611.538452,944.960754 613.282288,944.950439 
	C618.416931,944.919922 620.337097,942.613281 619.719055,937.410156 
	C619.398315,934.710266 619.692078,931.830627 620.274536,929.155457 
	C621.132812,925.214111 622.709778,921.431213 623.604187,917.495239 
	C626.057373,906.699524 625.663208,896.101318 620.991272,885.843384 
	C620.328369,884.387878 620.096497,882.644287 620.040405,881.021118 
	C619.857300,875.724854 617.395874,872.461609 612.295776,870.723267 
	C610.688416,870.175415 608.411865,867.924194 608.534241,866.654114 
	C608.904724,862.808044 606.397339,861.733032 603.914368,861.295349 
	C599.368835,860.494141 594.673401,860.575623 590.095276,859.911499 
	C588.150696,859.629395 586.005066,858.783936 584.546570,857.511597 
	C581.624939,854.963135 579.113403,851.944397 575.647400,848.292480 
	C575.164062,852.651489 575.108704,855.929626 574.380432,859.050720 
	C573.357849,863.433533 571.991272,863.626526 568.272949,861.075623 
	C562.987305,857.449524 557.125061,858.688293 551.508667,860.004028 
	C550.399597,860.263855 549.164612,862.793945 549.133850,864.300415 
	C549.054932,868.164062 547.149902,869.124329 543.746216,869.032898 
	C538.755005,868.898804 533.744263,868.788818 528.768311,869.096924 
	C526.385620,869.244507 522.654236,869.704590 521.954041,871.175354 
	C518.587524,878.247009 510.666351,875.738159 505.525757,879.462097 
	C502.427094,881.706848 498.294128,883.692810 495.719543,886.512634 
	C492.562927,889.970093 486.222229,892.263733 488.549072,899.064392 
	C488.607605,899.235596 488.194641,899.592346 487.969788,899.832825 
	C480.235901,908.105347 485.915924,917.071472 486.624390,925.779785 
	C492.694916,927.948608 493.847168,932.520264 494.122711,938.492004 
	C494.244446,941.130432 497.773743,943.746643 500.061890,946.072021 
	C500.797943,946.820007 502.522491,946.836670 503.777252,946.782288 
	C506.290436,946.673401 514.531067,951.064758 515.423340,953.319763 
	C515.702332,954.024780 515.592285,954.914795 515.542908,955.712891 
	C515.394348,958.114624 515.187927,960.512756 515.004028,962.912292 
M864.596313,613.340881 
	C864.982971,615.469116 865.369629,617.597351 865.756287,619.725647 
	C866.213745,619.760559 866.671143,619.795532 867.128601,619.830505 
	C868.286377,615.680847 869.741211,611.585083 870.506470,607.364258 
	C871.101074,604.085144 870.424927,600.569641 871.063538,597.305969 
	C871.754211,593.776794 873.455383,590.577881 871.377686,586.809692 
	C870.785706,585.736023 871.754211,582.930176 872.894348,581.920715 
	C878.455444,576.997131 876.858826,570.760132 876.728149,564.676331 
	C876.568115,557.231384 876.500061,549.774292 876.739929,542.333740 
	C876.985901,534.703735 878.041016,526.813660 873.414185,520.215759 
	C871.002075,516.776001 870.369507,514.536865 873.677979,511.822571 
	C876.328308,509.648224 876.152588,507.714417 873.852661,505.140717 
	C872.417725,503.534973 870.733765,500.517395 871.335571,498.990112 
	C875.375427,488.738342 863.992004,482.518127 864.953369,473.195404 
	C865.019958,472.550079 863.635315,471.817230 863.054016,471.030212 
	C861.809509,469.345184 860.165710,467.751892 859.558167,465.843262 
	C858.401001,462.207520 856.280151,460.951813 852.553528,460.929016 
	C844.751160,460.881287 836.952698,460.375305 829.149902,460.158661 
	C822.645020,459.978088 819.377991,462.655121 819.050964,468.710999 
	C818.873718,471.993439 817.367615,473.165771 814.331726,472.998901 
	C810.058472,472.764069 807.274780,474.209686 806.855103,478.997314 
	C806.740601,480.303528 805.743713,481.953796 804.645081,482.683655 
	C797.777283,487.246460 798.328979,495.458893 794.985474,501.726898 
	C794.030945,503.516327 793.377502,505.988617 791.853638,506.845825 
	C788.440796,508.765472 787.267395,510.679596 789.036499,514.463135 
	C789.550415,515.562317 788.803528,518.288940 787.818787,518.858276 
	C784.736084,520.640442 783.841919,523.087769 783.987549,526.344849 
	C784.198914,531.073975 783.285706,535.263428 778.646545,537.842407 
	C777.937744,538.236450 777.212463,540.099548 777.542969,540.629211 
	C780.460205,545.305237 777.320374,548.225220 775.035461,551.765930 
	C773.411499,554.282410 773.085999,557.606567 771.976379,560.491516 
	C769.474731,566.996033 773.259888,577.136902 761.662598,578.556824 
	C761.375122,578.592041 760.821838,581.559387 761.296326,581.899902 
	C764.790100,584.407471 763.981201,586.684509 761.518311,589.310852 
	C760.776001,590.102478 760.054810,591.493347 760.215637,592.461487 
	C761.574707,600.640198 754.624634,606.687683 755.107117,615.241516 
	C755.437073,621.090820 749.988647,627.274292 747.075256,633.285034 
	C746.798828,633.855286 746.252808,634.379639 745.704224,634.718750 
	C742.938538,636.427917 742.699402,638.168396 744.904053,640.739014 
	C745.590881,641.539856 745.413147,644.220825 744.625671,644.939453 
	C741.984131,647.350220 741.336731,649.611816 743.052551,652.876953 
	C743.456482,653.645569 742.223572,656.364807 741.531616,656.449280 
	C734.956116,657.251953 733.330017,662.659241 731.113892,667.372375 
	C729.986755,669.769531 729.553345,672.504639 728.905945,675.111694 
	C728.432129,677.019775 728.425110,679.096191 727.678101,680.874023 
	C725.649292,685.702148 720.028503,688.436218 720.625122,695.095398 
	C720.895447,698.113525 718.749756,701.769165 713.858948,702.255005 
	C709.786621,702.659607 706.140747,704.785217 707.731262,710.367798 
	C707.995117,711.293945 707.020264,712.775146 706.282959,713.745300 
	C704.332642,716.311584 702.257507,718.790466 700.120544,721.205383 
	C698.110107,723.477478 695.057373,725.279114 694.055542,727.897034 
	C692.014709,733.230103 688.941162,737.384155 684.456421,740.767822 
	C683.820801,741.247437 683.951111,742.989380 684.032349,744.125305 
	C684.271790,747.474487 682.412598,749.070496 679.744812,750.710327 
	C677.209229,752.268921 674.808105,754.483459 673.163818,756.952881 
	C670.674011,760.691956 667.065063,764.061035 667.540771,769.283081 
	C667.603149,769.968079 666.488464,770.968506 665.698914,771.489319 
	C660.285767,775.059875 654.685791,778.473083 651.912476,784.701111 
	C651.149292,786.414917 651.341431,788.534302 650.937256,790.433960 
	C650.588318,792.073914 650.515015,794.214722 649.452759,795.182373 
	C645.305847,798.960632 643.915222,802.978821 644.474548,808.863098 
	C645.269897,817.231628 647.870850,826.560791 639.329224,833.184570 
	C639.249756,833.246216 639.319336,833.500244 639.319336,834.715393 
	C641.609253,835.012268 644.057495,835.504761 646.522278,835.609802 
	C650.629700,835.784790 654.748962,835.654602 658.860901,835.753296 
	C671.071655,836.046387 682.805359,834.559204 693.536926,827.969421 
	C701.526001,823.063660 709.897217,818.781738 717.910522,813.913025 
	C719.944214,812.677307 722.189697,810.492004 722.718506,808.344360 
	C723.864746,803.688538 727.348145,803.428650 730.822449,802.456116 
	C734.493835,801.428467 738.358337,800.558228 741.609924,798.696228 
	C745.831909,796.278687 749.287598,792.509399 753.534241,790.152771 
	C756.924622,788.271362 760.110596,787.072266 758.289490,783.384094 
	C762.507935,781.536804 766.722656,780.381531 770.097656,778.024109 
	C773.663452,775.533447 776.419373,771.887451 779.546387,768.763550 
	C786.414856,761.901611 793.371033,755.125244 800.138733,748.165466 
	C803.804382,744.395935 807.394653,740.502991 810.577087,736.328796 
	C813.307007,732.748108 815.340759,728.644409 817.801270,724.848999 
	C823.637878,715.846069 829.570618,706.905457 835.411682,697.905396 
	C837.917664,694.044067 841.397278,690.380676 842.487183,686.128235 
	C844.517395,678.207764 847.780457,670.698730 849.473267,662.581421 
	C850.607910,657.140564 853.113159,652.238892 851.257446,646.531982 
	C851.194824,646.339539 851.586060,645.999512 851.923767,645.489685 
	C856.428833,647.132874 858.848267,645.122986 860.263611,640.711121 
	C860.884094,638.776794 862.393555,636.954590 863.913208,635.519653 
	C866.642029,632.943054 867.446289,630.530945 864.915283,627.318481 
	C860.969421,622.310242 861.712952,616.608337 862.606323,609.615906 
	C863.603577,611.347595 863.970337,611.984558 864.596313,613.340881 
z"/>
<path fill="#A4E9BD" opacity="1.000000" stroke="none" 
	d="
M544.534302,54.093842 
	C547.274658,56.591846 547.935547,59.205002 547.148376,62.625832 
	C546.380188,65.963913 547.044067,69.232361 550.807007,71.052872 
	C551.786926,71.526985 552.754578,73.030190 552.853821,74.138962 
	C553.196716,77.969437 554.054993,81.214394 557.814148,83.283081 
	C558.686340,83.763054 559.077271,85.984375 558.926697,87.318283 
	C557.761719,97.634537 560.797607,106.901443 565.108704,116.083702 
	C566.217529,118.445366 565.130066,121.847198 565.020325,124.770027 
	C564.807861,130.428650 564.334839,135.269897 560.590820,140.746353 
	C557.365112,145.464569 557.296082,151.446777 549.456055,150.738876 
	C548.933228,150.691650 547.337158,154.106506 547.585754,155.701355 
	C548.098328,158.989792 546.567810,160.300888 544.550903,162.634674 
	C540.700745,167.089569 535.391663,166.433929 530.980713,168.535538 
	C528.141663,169.888184 526.224609,171.201874 528.951782,174.891296 
	C530.465820,176.939590 530.599121,180.234726 530.682373,182.988220 
	C530.710388,183.915237 528.738770,185.575775 527.550171,185.705963 
	C525.843994,185.892822 523.956787,185.149445 522.253662,184.515915 
	C515.018738,181.824646 512.276367,182.647156 507.557495,189.121994 
	C507.364166,189.387268 507.149902,189.665573 506.882935,189.844727 
	C500.229340,194.310074 493.547852,198.734360 486.926697,203.247223 
	C485.875214,203.963898 485.022705,205.015015 484.201416,206.012924 
	C483.584320,206.762695 483.353668,208.148499 482.626740,208.438614 
	C477.676086,210.414352 472.630859,212.151703 467.634888,214.016129 
	C465.704773,214.736404 462.786163,215.093552 462.127563,216.477386 
	C460.577057,219.735336 458.346283,220.062805 455.325043,220.055008 
	C450.665375,220.042984 448.738525,222.552567 450.705597,226.733719 
	C452.304382,230.132050 450.552307,231.610336 448.203278,231.577988 
	C439.408447,231.456833 438.264435,238.061447 436.274719,244.420242 
	C435.379639,244.283218 434.373138,244.311615 433.517639,243.966095 
	C430.099609,242.585678 428.417419,243.250793 427.810394,247.307556 
	C426.891937,253.445496 424.912659,254.946487 418.305176,254.923859 
	C414.152252,254.909622 410.600037,255.298050 407.488098,258.663239 
	C406.198547,260.057739 403.249634,260.551239 401.127258,260.405670 
	C397.139435,260.132202 395.168152,261.384949 394.942535,265.483459 
	C394.717804,269.566406 393.273376,272.278137 388.278168,272.274841 
	C386.651093,272.273743 384.529907,274.690491 383.527710,276.496857 
	C382.448486,278.442108 382.482635,280.985321 381.913696,283.237976 
	C380.998108,286.863220 379.187531,289.374451 375.052521,290.131287 
	C369.562927,291.136047 364.534271,292.857727 362.781616,299.435730 
	C362.263855,301.378998 359.321045,302.695892 357.449554,304.251740 
	C356.188904,305.299805 353.818970,306.186615 353.738098,307.278290 
	C353.383270,312.070343 350.027008,313.982208 346.543213,315.882111 
	C342.316162,318.187347 340.663910,321.194305 344.049927,326.069946 
	C339.182861,330.992493 334.303802,335.792816 329.615021,340.772400 
	C328.561310,341.891479 327.948669,343.574707 327.523956,345.106567 
	C326.613953,348.389191 327.808807,352.703857 322.765015,353.827087 
	C322.332977,353.923309 322.140137,355.584534 322.027466,356.541290 
	C321.454529,361.407104 319.189056,363.291290 314.215942,362.948853 
	C307.202423,362.465912 306.427795,363.177612 306.951080,369.880005 
	C307.173676,372.730713 306.415985,374.358673 303.275574,375.315857 
	C300.854919,376.053680 298.920532,378.348236 296.728455,379.891602 
	C295.678986,380.630493 294.591156,381.661316 293.420715,381.819458 
	C289.298767,382.376373 287.739838,383.706177 290.873260,387.494141 
	C292.607391,389.590515 291.842316,390.982056 289.356720,391.980713 
	C285.817352,393.402771 282.681641,398.995514 283.536102,402.838074 
	C284.436707,406.888214 284.088776,409.025909 279.098694,409.320221 
	C277.323608,409.424896 275.447113,412.347961 274.147369,414.331970 
	C273.322632,415.590881 274.051331,418.136841 273.091461,418.991364 
	C268.897644,422.725037 269.579468,426.392120 273.418213,430.855896 
	C271.121521,431.357635 269.635742,431.921875 268.135223,431.964203 
	C264.004364,432.080719 262.085480,434.090454 263.308838,438.026306 
	C264.304108,441.228363 262.934265,442.499390 260.441559,443.868439 
	C257.414368,445.531036 254.514236,447.484955 251.788300,449.607178 
	C250.669189,450.478516 249.185364,452.691742 249.545029,453.295959 
	C250.446106,454.809662 252.208115,455.915192 253.809647,456.876373 
	C255.234695,457.731598 256.907837,458.173370 258.471466,458.797638 
	C257.214844,459.887238 255.929245,460.945648 254.711227,462.076782 
	C253.815582,462.908539 252.376816,463.813782 252.345566,464.726227 
	C252.316360,465.578033 253.821777,466.484619 254.655807,467.363220 
	C255.668869,468.430481 256.686218,469.493652 257.701721,470.558655 
	C256.395020,471.037994 255.107742,471.853546 253.777740,471.930481 
	C250.457504,472.122589 247.073273,472.297424 243.804260,471.839752 
	C242.098755,471.600952 240.582382,470.011353 238.359909,468.652313 
	C238.052109,469.721436 237.167877,471.091064 237.429214,472.187653 
	C238.418304,476.337555 239.524261,480.499359 241.086197,484.459625 
	C242.207764,487.303314 241.569519,488.516541 238.729706,488.986145 
	C237.420090,489.202759 236.094513,489.876495 234.835953,489.749664 
	C230.085510,489.271027 227.619720,491.910004 225.490784,495.655060 
	C224.021698,498.239349 221.969406,499.963318 218.408615,500.288483 
	C216.128006,500.496704 213.656464,502.807281 212.020355,504.793152 
	C210.082321,507.145508 207.954208,508.058655 206.587112,505.387878 
	C204.243591,500.809479 200.193771,499.694061 196.190109,500.173431 
	C187.872772,501.169281 182.076019,496.417450 175.237961,493.291260 
	C168.547104,490.232391 166.463852,485.861115 165.770996,479.440308 
	C165.607315,477.923279 163.868790,476.576202 162.511322,475.074951 
	C162.112534,461.024628 161.533218,447.026459 162.165726,433.083313 
	C162.682083,421.700378 164.527451,410.367737 166.000717,399.041016 
	C167.532669,387.262939 168.767014,375.403748 171.160446,363.792084 
	C173.564377,352.129486 176.983688,340.652130 180.426514,329.234833 
	C183.627472,318.619659 187.378799,308.167358 191.023682,297.690582 
	C192.606018,293.142395 194.528748,288.712585 196.638153,284.490967 
	C195.981247,288.723907 195.110458,292.732178 193.960693,296.658783 
	C190.698425,307.799683 187.147766,318.858887 184.048401,330.043823 
	C181.752686,338.328583 179.835312,346.727509 178.027298,355.135315 
	C176.390915,362.744965 176.201965,370.852661 173.425354,377.981476 
	C170.181091,386.310913 170.983307,394.420013 171.061584,402.786682 
	C171.095474,406.409637 169.935852,410.059113 169.179214,413.667358 
	C168.817474,415.392426 167.225449,418.145691 167.733795,418.565735 
	C172.235275,422.285339 173.691940,427.187012 174.252914,432.632019 
	C174.309906,433.185059 175.171768,433.609039 175.449249,434.193085 
	C176.998001,437.452789 179.767273,440.765106 179.712204,444.018707 
	C179.607208,450.221405 185.122681,451.948578 187.487747,456.042450 
	C187.770447,456.531799 189.315414,456.292877 190.275497,456.389709 
	C192.876083,456.652100 195.509949,457.309998 198.070786,457.095825 
	C204.077850,456.593445 210.147629,456.100128 215.999390,454.761322 
	C219.466049,453.968201 222.435898,451.193573 225.871002,450.014648 
	C228.823059,449.001526 230.376663,447.343994 230.625717,444.449921 
	C230.880356,441.490936 231.409134,439.154388 234.871170,438.096344 
	C235.946991,437.767548 236.527832,435.148712 236.937439,433.480591 
	C237.446518,431.407440 237.393692,429.200348 237.850510,427.109436 
	C238.650330,423.448639 240.646988,421.903198 244.348373,423.901245 
	C248.420624,426.099487 249.838150,423.071503 248.777054,420.468475 
	C245.588120,412.645569 251.418564,408.571625 254.997391,403.643921 
	C257.420807,400.307098 260.734772,398.595276 264.531555,402.698334 
	C265.752808,399.442871 266.029388,395.826843 267.975922,394.154449 
	C271.359283,391.247528 272.030243,388.054169 272.080750,384.048248 
	C272.134644,379.773193 273.536102,376.452179 278.589813,375.386597 
	C280.301575,375.025726 282.154449,372.528503 282.826569,370.615387 
	C284.311218,366.389618 285.086975,361.914795 286.338593,356.774780 
	C289.275604,360.165863 291.144470,361.427124 292.335480,356.838287 
	C292.766785,355.176453 294.281372,353.812683 295.216339,352.261475 
	C298.237122,347.249481 304.872192,345.125977 305.829346,338.352814 
	C306.474976,333.784271 309.459595,330.853363 313.813599,328.917755 
	C315.829712,328.021454 318.290833,325.769836 318.577515,323.839630 
	C319.141663,320.042023 321.152161,318.657440 324.340790,318.153534 
	C327.812897,317.604858 328.923309,315.571960 329.105804,312.257172 
	C329.208252,310.396301 329.938965,308.299133 331.055817,306.810547 
	C336.750519,299.220490 342.519409,291.674927 348.567444,284.366302 
	C351.182983,281.205627 354.124207,277.101135 357.641205,276.175690 
	C363.343170,274.675232 365.978668,272.927917 365.178650,266.961456 
	C364.718597,263.530426 365.983429,261.568878 369.441528,260.897705 
	C372.919830,260.222626 376.359955,259.350891 379.847046,258.558472 
	C379.627136,257.285614 379.672791,256.734894 379.443604,256.346344 
	C376.332153,251.071365 376.470795,250.690475 382.320831,249.425629 
	C383.450409,249.181412 384.620117,249.087723 385.777039,249.010834 
	C391.111938,248.656219 391.456329,248.029022 389.791443,243.024872 
	C389.384949,241.803162 389.372253,239.727463 390.105408,239.055099 
	C390.822754,238.397202 392.755432,238.874573 394.091034,239.155762 
	C394.829346,239.311249 395.435913,240.088318 396.103973,240.582336 
	C398.833954,242.601059 400.888611,242.664993 402.104462,238.880936 
	C402.450012,237.805588 403.595642,236.375275 404.557617,236.216202 
	C408.665314,235.537064 410.546417,232.971512 411.406433,229.255432 
	C412.033264,226.547150 413.333771,224.883362 416.511688,224.899918 
	C419.120819,224.913528 420.920532,223.733612 420.404724,220.480408 
	C420.199951,219.188782 420.641235,216.703033 421.175751,216.589798 
	C422.805267,216.244644 424.676392,216.596008 426.349823,217.054657 
	C427.513611,217.373611 428.506531,218.315933 430.108917,219.310760 
	C430.779114,214.352097 436.695801,211.994888 434.441284,206.332214 
	C434.231598,205.805466 436.767883,203.253372 438.067169,203.222076 
	C443.208496,203.098267 448.107422,203.045822 451.118073,197.835114 
	C451.422546,197.308090 452.688293,197.423172 453.367157,197.009384 
	C455.316010,195.821457 457.212372,194.543640 459.091034,193.245728 
	C460.532074,192.250183 461.974457,191.240997 463.310883,190.113098 
	C465.836914,187.981140 469.811951,186.120270 470.433014,183.495605 
	C471.528992,178.863922 474.007263,177.851135 477.762024,178.052963 
	C482.814087,178.324509 484.870361,175.529022 486.021454,171.165192 
	C486.389832,169.768600 487.480957,167.764801 488.596100,167.492798 
	C495.703308,165.759155 498.497070,160.198669 501.854370,154.535980 
	C505.426514,148.510986 510.074890,143.066742 514.692383,137.750290 
	C516.286682,135.914658 517.874634,134.847427 517.145630,132.019882 
	C516.521179,129.597855 517.180542,127.365059 520.357849,126.921059 
	C523.546326,126.475494 524.254517,124.368340 523.915039,121.456329 
	C523.708496,119.683632 524.114746,117.837692 523.892456,116.069031 
	C523.464172,112.660210 523.574219,108.841591 521.992493,106.014458 
	C520.354553,103.086884 519.958374,101.670860 522.797913,99.549690 
	C525.968750,97.181137 525.159668,95.054436 521.923706,93.025314 
	C520.293884,92.003311 519.177368,90.021172 518.101318,88.302513 
	C517.239990,86.926765 517.207886,84.784355 516.085083,83.863113 
	C511.487061,80.090660 511.272980,76.811050 516.444763,73.502983 
	C516.699951,73.339775 516.583130,72.594978 516.526001,73.074760 
	C511.112946,70.314827 506.222321,67.534103 501.071167,65.374786 
	C499.580353,64.749863 497.341278,65.904030 495.446655,66.250214 
	C494.186462,66.480484 492.928741,66.724304 491.669891,66.962067 
	C495.955627,61.176491 495.928436,61.239311 490.060944,58.700996 
	C489.173889,58.317257 488.675446,57.035320 487.997223,56.168854 
	C500.358826,55.446789 512.715027,54.603683 525.084290,54.053013 
	C531.401062,53.771797 537.741211,54.014961 544.534302,54.093842 
z"/>
<path fill="#B0ECC5" opacity="1.000000" stroke="none" 
	d="
M214.889816,246.965179 
	C220.233612,238.170364 225.247238,229.152206 231.006348,220.638321 
	C237.915558,210.424179 244.864334,200.128647 252.873657,190.792938 
	C264.067474,177.745438 276.110229,165.409836 288.083710,153.054504 
	C294.165771,146.778458 300.891174,141.125885 307.667725,135.542465 
	C309.348145,139.341614 310.657501,139.140762 313.790405,136.515137 
	C317.239441,133.624588 321.293121,131.453598 325.094177,128.985779 
	C327.157288,127.646347 329.882812,126.795288 331.200104,124.937347 
	C335.399017,119.015060 341.192596,116.680473 348.036621,115.936020 
	C349.258087,115.803162 350.450623,115.104141 351.584473,114.525429 
	C354.413727,113.081390 357.258698,111.653061 359.992645,110.040848 
	C364.119415,107.607285 368.675079,105.558823 372.042542,102.305458 
	C374.134430,100.284470 375.727600,99.205856 378.585510,98.885155 
	C384.098511,98.266510 389.809448,98.174973 394.059509,93.296188 
	C395.791687,91.307693 398.750214,89.745621 401.376007,89.291328 
	C411.374908,87.561401 421.469208,86.386703 431.517212,84.930901 
	C432.614899,84.771858 433.954620,84.425156 434.651123,83.673477 
	C437.862549,80.207726 441.488190,79.438660 445.983429,80.818092 
	C447.586700,81.310074 449.581818,80.331963 451.376251,80.429039 
	C457.514099,80.761116 463.946899,79.919632 468.541382,85.800682 
	C469.807434,87.421249 472.440186,88.020294 474.506470,88.953842 
	C475.968750,89.614517 477.825928,89.703583 478.974304,90.676460 
	C480.273956,91.777466 481.876251,93.664696 481.746002,95.060677 
	C481.509766,97.592407 480.087646,100.013489 479.103577,102.632385 
	C479.429718,102.731529 480.048248,102.929939 480.672668,103.107651 
	C484.924713,104.317848 487.076202,107.144089 486.977112,111.550804 
	C486.880707,115.836983 488.427460,120.683334 481.915985,122.335007 
	C478.270966,123.259590 477.849121,128.924347 480.515320,132.327423 
	C481.539459,133.634613 481.994751,135.387436 482.709259,136.937195 
	C481.005341,137.625778 479.319183,138.363449 477.592377,138.988876 
	C475.921814,139.593918 472.841095,139.887634 472.731384,140.654480 
	C471.837921,146.900085 467.881378,151.141220 464.042480,155.575607 
	C462.487518,157.371750 461.668274,159.897018 459.928070,161.421310 
	C456.373077,164.535309 452.170929,166.923950 448.698456,170.115295 
	C444.750183,173.744003 441.173767,177.809280 437.693726,181.904053 
	C435.459198,184.533203 434.132080,188.048401 431.624481,190.307587 
	C425.674774,195.667938 418.427460,199.673599 414.841492,207.383987 
	C414.556366,207.997055 413.494873,208.419647 412.716461,208.605652 
	C406.475403,210.097015 402.708557,214.911392 398.409546,219.047546 
	C396.745758,220.648300 395.044312,222.434143 393.008484,223.375092 
	C389.300201,225.089020 385.816956,226.528442 385.125397,231.344925 
	C384.941437,232.626083 383.127594,234.239014 381.739075,234.678040 
	C377.105621,236.143066 375.413361,240.093384 372.511780,243.298157 
	C368.214172,248.044922 363.800171,253.107651 358.921478,257.089417 
	C355.144409,260.172058 351.421234,262.937164 348.466705,266.915131 
	C345.930450,270.329895 342.754303,273.274811 339.812317,276.381226 
	C337.348114,278.983124 334.694946,281.416443 332.363739,284.129150 
	C331.317444,285.346680 330.217896,287.072296 330.237274,288.553040 
	C330.310211,294.133392 329.047089,295.855469 323.733124,297.105988 
	C322.391937,297.421631 320.313049,298.779449 320.269165,299.736206 
	C320.028503,304.978271 316.351227,306.705200 312.620667,309.194305 
	C308.970428,311.629822 305.225677,315.114899 303.636078,319.003357 
	C302.674225,321.356262 301.917877,322.420319 299.950409,323.714142 
	C297.667084,325.215637 294.408081,327.551117 294.322998,329.636749 
	C294.081848,335.549286 290.931976,338.031464 286.199951,340.308563 
	C284.296936,341.224335 283.174225,344.080231 282.078217,346.246338 
	C281.303955,347.776520 281.645844,349.996735 280.663086,351.272186 
	C277.909729,354.845551 274.712189,358.074951 271.720734,361.467224 
	C269.876160,363.558960 267.087402,365.442383 266.461823,367.867920 
	C264.574036,375.187012 260.185394,380.007050 253.739334,383.387482 
	C253.049423,383.749268 252.445435,384.433807 252.015106,385.105469 
	C249.562149,388.933899 243.779587,390.132263 243.590469,395.790924 
	C243.574600,396.266083 242.676758,396.700165 242.209564,397.173920 
	C239.953110,399.462036 237.803741,401.867737 235.424423,404.019440 
	C232.938065,406.267914 230.209183,408.246094 227.636551,410.402313 
	C226.769974,411.128693 226.042038,412.024780 225.276993,412.867096 
	C222.812836,415.580139 220.400513,418.341644 217.887177,421.008057 
	C216.681168,422.287537 214.577133,423.165344 214.109772,424.620178 
	C211.951172,431.339478 206.525360,428.774780 202.320419,428.830200 
	C198.153809,428.885162 195.459213,426.098114 195.141266,421.926392 
	C194.909393,418.883728 193.719254,417.935394 190.820343,417.931641 
	C186.691055,417.926270 184.299118,415.652863 184.052505,411.479431 
	C183.641159,404.518738 182.904755,397.538635 183.103851,390.589569 
	C183.397614,380.336090 184.099899,370.071747 185.181900,359.870728 
	C186.013489,352.030518 187.532288,344.247314 189.091446,336.508453 
	C189.663742,333.667847 191.639465,331.181946 189.472244,328.068390 
	C189.065353,327.483826 190.515381,324.766113 191.711319,324.073303 
	C194.624191,322.385742 196.192612,320.333618 196.053879,316.889709 
	C195.995514,315.441345 196.114777,313.720734 196.840378,312.549530 
	C201.098053,305.676941 197.656052,296.762695 202.876617,290.172119 
	C203.211044,289.749908 202.827377,288.826508 203.023926,288.215424 
	C203.767212,285.904388 204.438217,283.545135 205.457687,281.353455 
	C207.194519,277.619629 209.420364,274.099792 210.979477,270.300720 
	C212.404572,266.828186 212.770279,262.882904 214.420197,259.550659 
	C216.311768,255.730408 219.358215,252.494232 221.401825,248.732101 
	C222.492905,246.723495 222.528030,244.141281 223.194443,241.115524 
	C219.655716,243.608154 217.272766,245.286667 214.889816,246.965179 
M200.058746,380.359497 
	C201.329758,384.919342 204.725784,385.874237 208.925430,385.836151 
	C212.160538,385.806763 215.417038,386.458374 218.629944,386.258698 
	C220.702377,386.129944 224.044449,385.504089 224.511734,384.245148 
	C226.170029,379.777710 229.721848,378.126160 233.412018,376.171753 
	C234.887909,375.390045 236.425751,373.847260 236.960922,372.311340 
	C240.186523,363.054108 251.493942,361.378876 255.180710,352.636841 
	C255.275635,352.411774 255.750305,352.250763 256.060547,352.227295 
	C259.845337,351.940796 260.692963,349.234680 261.568054,346.159760 
	C262.070312,344.394958 263.371582,342.682220 264.722382,341.366028 
	C269.366974,336.840271 274.643829,332.883209 278.811798,327.972717 
	C282.445068,323.692169 282.277740,316.363007 289.382111,314.727753 
	C289.592041,314.679413 289.659149,314.142914 289.854553,313.879913 
	C293.927063,308.398315 296.461334,301.609650 303.249176,298.412537 
	C304.079895,298.021240 304.311584,296.447540 304.924011,295.487610 
	C307.275513,291.801758 309.299591,287.818237 312.154083,284.567810 
	C314.838959,281.510498 318.715393,279.519073 321.521790,276.543884 
	C324.649475,273.228119 328.126678,269.708954 329.731232,265.605530 
	C332.665710,258.101227 339.726379,254.386475 343.918060,248.148712 
	C345.884369,245.222610 348.542694,242.767181 350.816650,240.039429 
	C351.748352,238.921783 352.297882,237.430618 353.355530,236.482086 
	C358.764526,231.631058 365.348419,227.664322 369.462524,221.915024 
	C373.566437,216.179993 378.829102,212.254532 383.766327,207.663864 
	C387.861450,203.856110 389.135284,197.165726 395.836151,195.881729 
	C396.321564,195.788712 396.715271,194.509827 396.909698,193.722565 
	C398.022980,189.214539 404.826172,188.794724 404.455261,183.218231 
	C404.450653,183.148651 405.157654,183.138596 405.357147,182.931702 
	C407.008057,181.219315 408.981140,179.678970 410.149841,177.674423 
	C411.693451,175.026901 412.458282,171.952026 416.679810,173.584503 
	C417.393524,173.860489 419.321594,173.005981 419.485596,172.365677 
	C420.501068,168.400650 425.255341,165.701370 423.260620,160.566315 
	C422.897461,159.631424 424.934967,156.801010 426.349121,156.343109 
	C429.126434,155.443817 429.532043,153.865906 430.128143,151.345215 
	C431.895538,143.871567 432.953613,136.098022 437.751343,129.635239 
	C439.989624,126.620201 439.326141,123.807678 436.693207,121.191383 
	C434.017670,118.532722 431.352631,115.820457 429.032837,112.857750 
	C426.139221,109.162193 417.768158,106.267555 413.189362,107.425972 
	C410.021820,108.227341 406.658539,109.148109 403.490082,108.855011 
	C397.979675,108.345245 392.984955,108.342789 389.142029,113.106003 
	C388.704437,113.648338 387.598114,113.988693 386.864807,113.900345 
	C381.932037,113.306053 377.798309,115.055473 373.851868,117.793938 
	C372.843262,118.493820 371.298126,118.375763 370.046631,118.779526 
	C367.336090,119.654007 364.560883,120.419136 361.993378,121.617287 
	C359.920868,122.584412 358.195068,124.268257 356.174652,125.377762 
	C348.689636,129.488190 339.993256,131.253876 333.437134,137.207687 
	C332.499664,138.059021 330.942963,138.189026 329.859589,138.927002 
	C327.300507,140.670151 324.833954,142.552185 322.367493,144.427383 
	C319.906586,146.298386 317.735199,149.332962 315.012085,149.934647 
	C305.499481,152.036469 301.893372,162.042023 293.396423,165.292526 
	C292.800537,165.520493 292.617889,166.701202 292.123749,167.347641 
	C290.874542,168.981857 289.861908,171.440979 288.213989,172.013336 
	C281.532806,174.333847 277.648682,179.825562 273.113892,184.532730 
	C271.358978,186.354340 270.523987,189.035553 269.122101,191.230774 
	C267.399200,193.928726 266.045746,197.254562 263.601166,199.017441 
	C258.628754,202.603256 255.475815,207.036377 253.444824,212.733185 
	C252.642227,214.984467 250.309021,216.680817 248.710190,218.660080 
	C247.124084,220.623596 245.199158,222.434967 244.107285,224.650375 
	C241.960144,229.006958 240.705734,233.833633 238.329651,238.040924 
	C233.640121,246.344513 228.427368,254.352142 223.472061,262.507141 
	C223.147690,263.040924 223.214722,263.799194 223.026215,264.431152 
	C222.136673,267.413055 221.737534,270.683899 220.226334,273.313049 
	C213.629471,284.790009 210.354050,297.501160 206.368118,309.918518 
	C203.889404,317.640533 202.786087,325.797455 200.436447,333.568970 
	C195.795135,348.920227 193.468094,364.174133 200.058746,380.359497 
z"/>
<path fill="#AAEAC1" opacity="1.000000" stroke="none" 
	d="
M214.567963,247.117554 
	C217.272766,245.286667 219.655716,243.608154 223.194443,241.115524 
	C222.528030,244.141281 222.492905,246.723495 221.401825,248.732101 
	C219.358215,252.494232 216.311768,255.730408 214.420197,259.550659 
	C212.770279,262.882904 212.404572,266.828186 210.979477,270.300720 
	C209.420364,274.099792 207.194519,277.619629 205.457687,281.353455 
	C204.438217,283.545135 203.767212,285.904388 203.023926,288.215424 
	C202.827377,288.826508 203.211044,289.749908 202.876617,290.172119 
	C197.656052,296.762695 201.098053,305.676941 196.840378,312.549530 
	C196.114777,313.720734 195.995514,315.441345 196.053879,316.889709 
	C196.192612,320.333618 194.624191,322.385742 191.711319,324.073303 
	C190.515381,324.766113 189.065353,327.483826 189.472244,328.068390 
	C191.639465,331.181946 189.663742,333.667847 189.091446,336.508453 
	C187.532288,344.247314 186.013489,352.030518 185.181900,359.870728 
	C184.099899,370.071747 183.397614,380.336090 183.103851,390.589569 
	C182.904755,397.538635 183.641159,404.518738 184.052505,411.479431 
	C184.299118,415.652863 186.691055,417.926270 190.820343,417.931641 
	C193.719254,417.935394 194.909393,418.883728 195.141266,421.926392 
	C195.459213,426.098114 198.153809,428.885162 202.320419,428.830200 
	C206.525360,428.774780 211.951172,431.339478 214.109772,424.620178 
	C214.577133,423.165344 216.681168,422.287537 217.887177,421.008057 
	C220.400513,418.341644 222.812836,415.580139 225.276993,412.867096 
	C226.042038,412.024780 226.769974,411.128693 227.636551,410.402313 
	C230.209183,408.246094 232.938065,406.267914 235.424423,404.019440 
	C237.803741,401.867737 239.953110,399.462036 242.209564,397.173920 
	C242.676758,396.700165 243.574600,396.266083 243.590469,395.790924 
	C243.779587,390.132263 249.562149,388.933899 252.015106,385.105469 
	C252.445435,384.433807 253.049423,383.749268 253.739334,383.387482 
	C260.185394,380.007050 264.574036,375.187012 266.461823,367.867920 
	C267.087402,365.442383 269.876160,363.558960 271.720734,361.467224 
	C274.712189,358.074951 277.909729,354.845551 280.663086,351.272186 
	C281.645844,349.996735 281.303955,347.776520 282.078217,346.246338 
	C283.174225,344.080231 284.296936,341.224335 286.199951,340.308563 
	C290.931976,338.031464 294.081848,335.549286 294.322998,329.636749 
	C294.408081,327.551117 297.667084,325.215637 299.950409,323.714142 
	C301.917877,322.420319 302.674225,321.356262 303.636078,319.003357 
	C305.225677,315.114899 308.970428,311.629822 312.620667,309.194305 
	C316.351227,306.705200 320.028503,304.978271 320.269165,299.736206 
	C320.313049,298.779449 322.391937,297.421631 323.733124,297.105988 
	C329.047089,295.855469 330.310211,294.133392 330.237274,288.553040 
	C330.217896,287.072296 331.317444,285.346680 332.363739,284.129150 
	C334.694946,281.416443 337.348114,278.983124 339.812317,276.381226 
	C342.754303,273.274811 345.930450,270.329895 348.466705,266.915131 
	C351.421234,262.937164 355.144409,260.172058 358.921478,257.089417 
	C363.800171,253.107651 368.214172,248.044922 372.511780,243.298157 
	C375.413361,240.093384 377.105621,236.143066 381.739075,234.678040 
	C383.127594,234.239014 384.941437,232.626083 385.125397,231.344925 
	C385.816956,226.528442 389.300201,225.089020 393.008484,223.375092 
	C395.044312,222.434143 396.745758,220.648300 398.409546,219.047546 
	C402.708557,214.911392 406.475403,210.097015 412.716461,208.605652 
	C413.494873,208.419647 414.556366,207.997055 414.841492,207.383987 
	C418.427460,199.673599 425.674774,195.667938 431.624481,190.307587 
	C434.132080,188.048401 435.459198,184.533203 437.693726,181.904053 
	C441.173767,177.809280 444.750183,173.744003 448.698456,170.115295 
	C452.170929,166.923950 456.373077,164.535309 459.928070,161.421310 
	C461.668274,159.897018 462.487518,157.371750 464.042480,155.575607 
	C467.881378,151.141220 471.837921,146.900085 472.731384,140.654480 
	C472.841095,139.887634 475.921814,139.593918 477.592377,138.988876 
	C479.319183,138.363449 481.005341,137.625778 482.709259,136.937195 
	C481.994751,135.387436 481.539459,133.634613 480.515320,132.327423 
	C477.849121,128.924347 478.270966,123.259590 481.915985,122.335007 
	C488.427460,120.683334 486.880707,115.836983 486.977112,111.550804 
	C487.076202,107.144089 484.924713,104.317848 480.672668,103.107651 
	C480.048248,102.929939 479.429718,102.731529 479.103577,102.632385 
	C480.087646,100.013489 481.509766,97.592407 481.746002,95.060677 
	C481.876251,93.664696 480.273956,91.777466 478.974304,90.676460 
	C477.825928,89.703583 475.968750,89.614517 474.506470,88.953842 
	C472.440186,88.020294 469.807434,87.421249 468.541382,85.800682 
	C463.946899,79.919632 457.514099,80.761116 451.376251,80.429039 
	C449.581818,80.331963 447.586700,81.310074 445.983429,80.818092 
	C441.488190,79.438660 437.862549,80.207726 434.651123,83.673477 
	C433.954620,84.425156 432.614899,84.771858 431.517212,84.930901 
	C421.469208,86.386703 411.374908,87.561401 401.376007,89.291328 
	C398.750214,89.745621 395.791687,91.307693 394.059509,93.296188 
	C389.809448,98.174973 384.098511,98.266510 378.585510,98.885155 
	C375.727600,99.205856 374.134430,100.284470 372.042542,102.305458 
	C368.675079,105.558823 364.119415,107.607285 359.992645,110.040848 
	C357.258698,111.653061 354.413727,113.081390 351.584473,114.525429 
	C350.450623,115.104141 349.258087,115.803162 348.036621,115.936020 
	C341.192596,116.680473 335.399017,119.015060 331.200104,124.937347 
	C329.882812,126.795288 327.157288,127.646347 325.094177,128.985779 
	C321.293121,131.453598 317.239441,133.624588 313.790405,136.515137 
	C310.657501,139.140762 309.348145,139.341614 308.004486,135.529083 
	C325.196503,120.223534 344.177765,107.766159 364.022888,96.808708 
	C377.805267,89.198776 392.263977,82.625298 406.908875,76.820885 
	C420.613586,71.389122 434.807404,66.994415 449.075134,63.242992 
	C460.306061,60.290039 471.978668,59.020096 483.450195,56.974907 
	C484.708160,56.750633 485.933533,56.343735 487.585632,56.095200 
	C488.675446,57.035320 489.173889,58.317257 490.060944,58.700996 
	C495.928436,61.239311 495.955627,61.176491 491.669891,66.962067 
	C492.928741,66.724304 494.186462,66.480484 495.446655,66.250214 
	C497.341278,65.904030 499.580353,64.749863 501.071167,65.374786 
	C506.222321,67.534103 511.112946,70.314827 516.526001,73.074760 
	C516.583130,72.594978 516.699951,73.339775 516.444763,73.502983 
	C511.272980,76.811050 511.487061,80.090660 516.085083,83.863113 
	C517.207886,84.784355 517.239990,86.926765 518.101318,88.302513 
	C519.177368,90.021172 520.293884,92.003311 521.923706,93.025314 
	C525.159668,95.054436 525.968750,97.181137 522.797913,99.549690 
	C519.958374,101.670860 520.354553,103.086884 521.992493,106.014458 
	C523.574219,108.841591 523.464172,112.660210 523.892456,116.069031 
	C524.114746,117.837692 523.708496,119.683632 523.915039,121.456329 
	C524.254517,124.368340 523.546326,126.475494 520.357849,126.921059 
	C517.180542,127.365059 516.521179,129.597855 517.145630,132.019882 
	C517.874634,134.847427 516.286682,135.914658 514.692383,137.750290 
	C510.074890,143.066742 505.426514,148.510986 501.854370,154.535980 
	C498.497070,160.198669 495.703308,165.759155 488.596100,167.492798 
	C487.480957,167.764801 486.389832,169.768600 486.021454,171.165192 
	C484.870361,175.529022 482.814087,178.324509 477.762024,178.052963 
	C474.007263,177.851135 471.528992,178.863922 470.433014,183.495605 
	C469.811951,186.120270 465.836914,187.981140 463.310883,190.113098 
	C461.974457,191.240997 460.532074,192.250183 459.091034,193.245728 
	C457.212372,194.543640 455.316010,195.821457 453.367157,197.009384 
	C452.688293,197.423172 451.422546,197.308090 451.118073,197.835114 
	C448.107422,203.045822 443.208496,203.098267 438.067169,203.222076 
	C436.767883,203.253372 434.231598,205.805466 434.441284,206.332214 
	C436.695801,211.994888 430.779114,214.352097 430.108917,219.310760 
	C428.506531,218.315933 427.513611,217.373611 426.349823,217.054657 
	C424.676392,216.596008 422.805267,216.244644 421.175751,216.589798 
	C420.641235,216.703033 420.199951,219.188782 420.404724,220.480408 
	C420.920532,223.733612 419.120819,224.913528 416.511688,224.899918 
	C413.333771,224.883362 412.033264,226.547150 411.406433,229.255432 
	C410.546417,232.971512 408.665314,235.537064 404.557617,236.216202 
	C403.595642,236.375275 402.450012,237.805588 402.104462,238.880936 
	C400.888611,242.664993 398.833954,242.601059 396.103973,240.582336 
	C395.435913,240.088318 394.829346,239.311249 394.091034,239.155762 
	C392.755432,238.874573 390.822754,238.397202 390.105408,239.055099 
	C389.372253,239.727463 389.384949,241.803162 389.791443,243.024872 
	C391.456329,248.029022 391.111938,248.656219 385.777039,249.010834 
	C384.620117,249.087723 383.450409,249.181412 382.320831,249.425629 
	C376.470795,250.690475 376.332153,251.071365 379.443604,256.346344 
	C379.672791,256.734894 379.627136,257.285614 379.847046,258.558472 
	C376.359955,259.350891 372.919830,260.222626 369.441528,260.897705 
	C365.983429,261.568878 364.718597,263.530426 365.178650,266.961456 
	C365.978668,272.927917 363.343170,274.675232 357.641205,276.175690 
	C354.124207,277.101135 351.182983,281.205627 348.567444,284.366302 
	C342.519409,291.674927 336.750519,299.220490 331.055817,306.810547 
	C329.938965,308.299133 329.208252,310.396301 329.105804,312.257172 
	C328.923309,315.571960 327.812897,317.604858 324.340790,318.153534 
	C321.152161,318.657440 319.141663,320.042023 318.577515,323.839630 
	C318.290833,325.769836 315.829712,328.021454 313.813599,328.917755 
	C309.459595,330.853363 306.474976,333.784271 305.829346,338.352814 
	C304.872192,345.125977 298.237122,347.249481 295.216339,352.261475 
	C294.281372,353.812683 292.766785,355.176453 292.335480,356.838287 
	C291.144470,361.427124 289.275604,360.165863 286.338593,356.774780 
	C285.086975,361.914795 284.311218,366.389618 282.826569,370.615387 
	C282.154449,372.528503 280.301575,375.025726 278.589813,375.386597 
	C273.536102,376.452179 272.134644,379.773193 272.080750,384.048248 
	C272.030243,388.054169 271.359283,391.247528 267.975922,394.154449 
	C266.029388,395.826843 265.752808,399.442871 264.531555,402.698334 
	C260.734772,398.595276 257.420807,400.307098 254.997391,403.643921 
	C251.418564,408.571625 245.588120,412.645569 248.777054,420.468475 
	C249.838150,423.071503 248.420624,426.099487 244.348373,423.901245 
	C240.646988,421.903198 238.650330,423.448639 237.850510,427.109436 
	C237.393692,429.200348 237.446518,431.407440 236.937439,433.480591 
	C236.527832,435.148712 235.946991,437.767548 234.871170,438.096344 
	C231.409134,439.154388 230.880356,441.490936 230.625717,444.449921 
	C230.376663,447.343994 228.823059,449.001526 225.871002,450.014648 
	C222.435898,451.193573 219.466049,453.968201 215.999390,454.761322 
	C210.147629,456.100128 204.077850,456.593445 198.070786,457.095825 
	C195.509949,457.309998 192.876083,456.652100 190.275497,456.389709 
	C189.315414,456.292877 187.770447,456.531799 187.487747,456.042450 
	C185.122681,451.948578 179.607208,450.221405 179.712204,444.018707 
	C179.767273,440.765106 176.998001,437.452789 175.449249,434.193085 
	C175.171768,433.609039 174.309906,433.185059 174.252914,432.632019 
	C173.691940,427.187012 172.235275,422.285339 167.733795,418.565735 
	C167.225449,418.145691 168.817474,415.392426 169.179214,413.667358 
	C169.935852,410.059113 171.095474,406.409637 171.061584,402.786682 
	C170.983307,394.420013 170.181091,386.310913 173.425354,377.981476 
	C176.201965,370.852661 176.390915,362.744965 178.027298,355.135315 
	C179.835312,346.727509 181.752686,338.328583 184.048401,330.043823 
	C187.147766,318.858887 190.698425,307.799683 193.960693,296.658783 
	C195.110458,292.732178 195.981247,288.723907 196.969498,284.323303 
	C199.756851,277.339447 202.375671,270.701324 205.404526,264.255920 
	C208.117050,258.483643 211.281219,252.923599 214.567963,247.117554 
M503.207550,136.085770 
	C503.935974,137.655746 504.664429,139.225723 505.392853,140.795685 
	C506.413971,140.171982 508.211456,139.637772 508.295807,138.906082 
	C508.475555,137.346558 507.766388,135.684586 507.421417,134.064606 
	C506.108978,134.505707 504.796570,134.946808 503.207550,136.085770 
z"/>
<path fill="#97E3B5" opacity="1.000000" stroke="none" 
	d="
M515.329224,963.051514 
	C515.187927,960.512756 515.394348,958.114624 515.542908,955.712891 
	C515.592285,954.914795 515.702332,954.024780 515.423340,953.319763 
	C514.531067,951.064758 506.290436,946.673401 503.777252,946.782288 
	C502.522491,946.836670 500.797943,946.820007 500.061890,946.072021 
	C497.773743,943.746643 494.244446,941.130432 494.122711,938.492004 
	C493.847168,932.520264 492.694916,927.948608 486.624390,925.779785 
	C485.915924,917.071472 480.235901,908.105347 487.969788,899.832825 
	C488.194641,899.592346 488.607605,899.235596 488.549072,899.064392 
	C486.222229,892.263733 492.562927,889.970093 495.719543,886.512634 
	C498.294128,883.692810 502.427094,881.706848 505.525757,879.462097 
	C510.666351,875.738159 518.587524,878.247009 521.954041,871.175354 
	C522.654236,869.704590 526.385620,869.244507 528.768311,869.096924 
	C533.744263,868.788818 538.755005,868.898804 543.746216,869.032898 
	C547.149902,869.124329 549.054932,868.164062 549.133850,864.300415 
	C549.164612,862.793945 550.399597,860.263855 551.508667,860.004028 
	C557.125061,858.688293 562.987305,857.449524 568.272949,861.075623 
	C571.991272,863.626526 573.357849,863.433533 574.380432,859.050720 
	C575.108704,855.929626 575.164062,852.651489 575.647400,848.292480 
	C579.113403,851.944397 581.624939,854.963135 584.546570,857.511597 
	C586.005066,858.783936 588.150696,859.629395 590.095276,859.911499 
	C594.673401,860.575623 599.368835,860.494141 603.914368,861.295349 
	C606.397339,861.733032 608.904724,862.808044 608.534241,866.654114 
	C608.411865,867.924194 610.688416,870.175415 612.295776,870.723267 
	C617.395874,872.461609 619.857300,875.724854 620.040405,881.021118 
	C620.096497,882.644287 620.328369,884.387878 620.991272,885.843384 
	C625.663208,896.101318 626.057373,906.699524 623.604187,917.495239 
	C622.709778,921.431213 621.132812,925.214111 620.274536,929.155457 
	C619.692078,931.830627 619.398315,934.710266 619.719055,937.410156 
	C620.337097,942.613281 618.416931,944.919922 613.282288,944.950439 
	C611.538452,944.960754 609.669434,945.839539 608.087708,946.730164 
	C604.610657,948.687744 601.452759,951.282471 597.850647,952.931519 
	C592.186218,955.524902 585.192810,956.278992 580.667114,960.079956 
	C570.546631,968.580139 558.024109,972.568237 547.359436,979.846985 
	C546.025696,980.757263 543.865295,981.621460 547.404175,982.964966 
	C547.609253,984.346130 546.994629,985.920959 547.471863,987.023132 
	C551.221985,995.684631 559.414734,999.407471 566.816711,1003.969116 
	C571.066956,1006.588501 575.872192,1008.464783 577.046936,1014.286255 
	C577.945251,1018.737732 573.148865,1022.991089 566.126709,1024.893066 
	C553.712524,1028.255615 541.030701,1030.145142 528.197205,1028.774414 
	C520.969238,1028.002319 512.921936,1028.679199 507.602814,1021.881287 
	C507.019073,1021.135254 506.203400,1019.793823 506.488922,1019.263000 
	C509.958405,1012.812622 511.410706,1004.851135 520.789856,1003.186951 
	C526.564697,1002.162292 528.378052,998.412659 528.316406,992.570129 
	C528.293213,990.362305 528.933167,988.148621 529.254944,985.935242 
	C529.340271,985.348633 529.633606,984.580933 529.379822,984.187744 
	C524.846069,977.162048 520.242737,970.181213 515.329224,963.051514 
M541.852844,994.217468 
	C539.802490,994.217468 537.752197,994.217468 535.701843,994.217468 
	C535.361267,994.670044 535.020691,995.122559 534.680115,995.575134 
	C536.820312,998.921387 539.659241,1002.019043 540.957031,1005.665100 
	C543.758057,1013.534546 549.714355,1013.630249 556.205078,1012.859314 
	C561.774231,1012.197754 563.062378,1009.316467 559.579956,1005.066345 
	C557.863159,1002.971008 555.622986,1001.142395 553.285767,999.755798 
	C549.881165,997.736023 546.175354,996.224121 541.852844,994.217468 
M586.820251,945.429199 
	C584.356384,941.822876 580.921204,942.276367 577.085632,947.052185 
	C580.555969,948.201782 583.693115,949.149353 586.820251,945.429199 
z"/>
<path fill="#A4E9BD" opacity="1.000000" stroke="none" 
	d="
M162.094391,479.474792 
	C162.318649,483.434967 162.469727,487.853607 162.409912,492.617798 
	C162.139771,488.619965 162.080490,484.276611 162.094391,479.474792 
z"/>
<path fill="#ACEBC3" opacity="1.000000" stroke="none" 
	d="
M864.466736,612.981201 
	C863.970337,611.984558 863.603577,611.347595 862.606323,609.615906 
	C861.712952,616.608337 860.969421,622.310242 864.915283,627.318481 
	C867.446289,630.530945 866.642029,632.943054 863.913208,635.519653 
	C862.393555,636.954590 860.884094,638.776794 860.263611,640.711121 
	C858.848267,645.122986 856.428833,647.132874 851.923767,645.489685 
	C851.586060,645.999512 851.194824,646.339539 851.257446,646.531982 
	C853.113159,652.238892 850.607910,657.140564 849.473267,662.581421 
	C847.780457,670.698730 844.517395,678.207764 842.487183,686.128235 
	C841.397278,690.380676 837.917664,694.044067 835.411682,697.905396 
	C829.570618,706.905457 823.637878,715.846069 817.801270,724.848999 
	C815.340759,728.644409 813.307007,732.748108 810.577087,736.328796 
	C807.394653,740.502991 803.804382,744.395935 800.138733,748.165466 
	C793.371033,755.125244 786.414856,761.901611 779.546387,768.763550 
	C776.419373,771.887451 773.663452,775.533447 770.097656,778.024109 
	C766.722656,780.381531 762.507935,781.536804 758.289490,783.384094 
	C760.110596,787.072266 756.924622,788.271362 753.534241,790.152771 
	C749.287598,792.509399 745.831909,796.278687 741.609924,798.696228 
	C738.358337,800.558228 734.493835,801.428467 730.822449,802.456116 
	C727.348145,803.428650 723.864746,803.688538 722.718506,808.344360 
	C722.189697,810.492004 719.944214,812.677307 717.910522,813.913025 
	C709.897217,818.781738 701.526001,823.063660 693.536926,827.969421 
	C682.805359,834.559204 671.071655,836.046387 658.860901,835.753296 
	C654.748962,835.654602 650.629700,835.784790 646.522278,835.609802 
	C644.057495,835.504761 641.609253,835.012268 639.319336,834.715393 
	C639.319336,833.500244 639.249756,833.246216 639.329224,833.184570 
	C647.870850,826.560791 645.269897,817.231628 644.474548,808.863098 
	C643.915222,802.978821 645.305847,798.960632 649.452759,795.182373 
	C650.515015,794.214722 650.588318,792.073914 650.937256,790.433960 
	C651.341431,788.534302 651.149292,786.414917 651.912476,784.701111 
	C654.685791,778.473083 660.285767,775.059875 665.698914,771.489319 
	C666.488464,770.968506 667.603149,769.968079 667.540771,769.283081 
	C667.065063,764.061035 670.674011,760.691956 673.163818,756.952881 
	C674.808105,754.483459 677.209229,752.268921 679.744812,750.710327 
	C682.412598,749.070496 684.271790,747.474487 684.032349,744.125305 
	C683.951111,742.989380 683.820801,741.247437 684.456421,740.767822 
	C688.941162,737.384155 692.014709,733.230103 694.055542,727.897034 
	C695.057373,725.279114 698.110107,723.477478 700.120544,721.205383 
	C702.257507,718.790466 704.332642,716.311584 706.282959,713.745300 
	C707.020264,712.775146 707.995117,711.293945 707.731262,710.367798 
	C706.140747,704.785217 709.786621,702.659607 713.858948,702.255005 
	C718.749756,701.769165 720.895447,698.113525 720.625122,695.095398 
	C720.028503,688.436218 725.649292,685.702148 727.678101,680.874023 
	C728.425110,679.096191 728.432129,677.019775 728.905945,675.111694 
	C729.553345,672.504639 729.986755,669.769531 731.113892,667.372375 
	C733.330017,662.659241 734.956116,657.251953 741.531616,656.449280 
	C742.223572,656.364807 743.456482,653.645569 743.052551,652.876953 
	C741.336731,649.611816 741.984131,647.350220 744.625671,644.939453 
	C745.413147,644.220825 745.590881,641.539856 744.904053,640.739014 
	C742.699402,638.168396 742.938538,636.427917 745.704224,634.718750 
	C746.252808,634.379639 746.798828,633.855286 747.075256,633.285034 
	C749.988647,627.274292 755.437073,621.090820 755.107117,615.241516 
	C754.624634,606.687683 761.574707,600.640198 760.215637,592.461487 
	C760.054810,591.493347 760.776001,590.102478 761.518311,589.310852 
	C763.981201,586.684509 764.790100,584.407471 761.296326,581.899902 
	C760.821838,581.559387 761.375122,578.592041 761.662598,578.556824 
	C773.259888,577.136902 769.474731,566.996033 771.976379,560.491516 
	C773.085999,557.606567 773.411499,554.282410 775.035461,551.765930 
	C777.320374,548.225220 780.460205,545.305237 777.542969,540.629211 
	C777.212463,540.099548 777.937744,538.236450 778.646545,537.842407 
	C783.285706,535.263428 784.198914,531.073975 783.987549,526.344849 
	C783.841919,523.087769 784.736084,520.640442 787.818787,518.858276 
	C788.803528,518.288940 789.550415,515.562317 789.036499,514.463135 
	C787.267395,510.679596 788.440796,508.765472 791.853638,506.845825 
	C793.377502,505.988617 794.030945,503.516327 794.985474,501.726898 
	C798.328979,495.458893 797.777283,487.246460 804.645081,482.683655 
	C805.743713,481.953796 806.740601,480.303528 806.855103,478.997314 
	C807.274780,474.209686 810.058472,472.764069 814.331726,472.998901 
	C817.367615,473.165771 818.873718,471.993439 819.050964,468.710999 
	C819.377991,462.655121 822.645020,459.978088 829.149902,460.158661 
	C836.952698,460.375305 844.751160,460.881287 852.553528,460.929016 
	C856.280151,460.951813 858.401001,462.207520 859.558167,465.843262 
	C860.165710,467.751892 861.809509,469.345184 863.054016,471.030212 
	C863.635315,471.817230 865.019958,472.550079 864.953369,473.195404 
	C863.992004,482.518127 875.375427,488.738342 871.335571,498.990112 
	C870.733765,500.517395 872.417725,503.534973 873.852661,505.140717 
	C876.152588,507.714417 876.328308,509.648224 873.677979,511.822571 
	C870.369507,514.536865 871.002075,516.776001 873.414185,520.215759 
	C878.041016,526.813660 876.985901,534.703735 876.739929,542.333740 
	C876.500061,549.774292 876.568115,557.231384 876.728149,564.676331 
	C876.858826,570.760132 878.455444,576.997131 872.894348,581.920715 
	C871.754211,582.930176 870.785706,585.736023 871.377686,586.809692 
	C873.455383,590.577881 871.754211,593.776794 871.063538,597.305969 
	C870.424927,600.569641 871.101074,604.085144 870.506470,607.364258 
	C869.741211,611.585083 868.286377,615.680847 867.128601,619.830505 
	C866.671143,619.795532 866.213745,619.760559 865.756287,619.725647 
	C865.369629,617.597351 864.982971,615.469116 864.466736,612.981201 
z"/>
<path fill="#B6EDCB" opacity="1.000000" stroke="none" 
	d="
M199.995056,379.975403 
	C193.468094,364.174133 195.795135,348.920227 200.436447,333.568970 
	C202.786087,325.797455 203.889404,317.640533 206.368118,309.918518 
	C210.354050,297.501160 213.629471,284.790009 220.226334,273.313049 
	C221.737534,270.683899 222.136673,267.413055 223.026215,264.431152 
	C223.214722,263.799194 223.147690,263.040924 223.472061,262.507141 
	C228.427368,254.352142 233.640121,246.344513 238.329651,238.040924 
	C240.705734,233.833633 241.960144,229.006958 244.107285,224.650375 
	C245.199158,222.434967 247.124084,220.623596 248.710190,218.660080 
	C250.309021,216.680817 252.642227,214.984467 253.444824,212.733185 
	C255.475815,207.036377 258.628754,202.603256 263.601166,199.017441 
	C266.045746,197.254562 267.399200,193.928726 269.122101,191.230774 
	C270.523987,189.035553 271.358978,186.354340 273.113892,184.532730 
	C277.648682,179.825562 281.532806,174.333847 288.213989,172.013336 
	C289.861908,171.440979 290.874542,168.981857 292.123749,167.347641 
	C292.617889,166.701202 292.800537,165.520493 293.396423,165.292526 
	C301.893372,162.042023 305.499481,152.036469 315.012085,149.934647 
	C317.735199,149.332962 319.906586,146.298386 322.367493,144.427383 
	C324.833954,142.552185 327.300507,140.670151 329.859589,138.927002 
	C330.942963,138.189026 332.499664,138.059021 333.437134,137.207687 
	C339.993256,131.253876 348.689636,129.488190 356.174652,125.377762 
	C358.195068,124.268257 359.920868,122.584412 361.993378,121.617287 
	C364.560883,120.419136 367.336090,119.654007 370.046631,118.779526 
	C371.298126,118.375763 372.843262,118.493820 373.851868,117.793938 
	C377.798309,115.055473 381.932037,113.306053 386.864807,113.900345 
	C387.598114,113.988693 388.704437,113.648338 389.142029,113.106003 
	C392.984955,108.342789 397.979675,108.345245 403.490082,108.855011 
	C406.658539,109.148109 410.021820,108.227341 413.189362,107.425972 
	C417.768158,106.267555 426.139221,109.162193 429.032837,112.857750 
	C431.352631,115.820457 434.017670,118.532722 436.693207,121.191383 
	C439.326141,123.807678 439.989624,126.620201 437.751343,129.635239 
	C432.953613,136.098022 431.895538,143.871567 430.128143,151.345215 
	C429.532043,153.865906 429.126434,155.443817 426.349121,156.343109 
	C424.934967,156.801010 422.897461,159.631424 423.260620,160.566315 
	C425.255341,165.701370 420.501068,168.400650 419.485596,172.365677 
	C419.321594,173.005981 417.393524,173.860489 416.679810,173.584503 
	C412.458282,171.952026 411.693451,175.026901 410.149841,177.674423 
	C408.981140,179.678970 407.008057,181.219315 405.357147,182.931702 
	C405.157654,183.138596 404.450653,183.148651 404.455261,183.218231 
	C404.826172,188.794724 398.022980,189.214539 396.909698,193.722565 
	C396.715271,194.509827 396.321564,195.788712 395.836151,195.881729 
	C389.135284,197.165726 387.861450,203.856110 383.766327,207.663864 
	C378.829102,212.254532 373.566437,216.179993 369.462524,221.915024 
	C365.348419,227.664322 358.764526,231.631058 353.355530,236.482086 
	C352.297882,237.430618 351.748352,238.921783 350.816650,240.039429 
	C348.542694,242.767181 345.884369,245.222610 343.918060,248.148712 
	C339.726379,254.386475 332.665710,258.101227 329.731232,265.605530 
	C328.126678,269.708954 324.649475,273.228119 321.521790,276.543884 
	C318.715393,279.519073 314.838959,281.510498 312.154083,284.567810 
	C309.299591,287.818237 307.275513,291.801758 304.924011,295.487610 
	C304.311584,296.447540 304.079895,298.021240 303.249176,298.412537 
	C296.461334,301.609650 293.927063,308.398315 289.854553,313.879913 
	C289.659149,314.142914 289.592041,314.679413 289.382111,314.727753 
	C282.277740,316.363007 282.445068,323.692169 278.811798,327.972717 
	C274.643829,332.883209 269.366974,336.840271 264.722382,341.366028 
	C263.371582,342.682220 262.070312,344.394958 261.568054,346.159760 
	C260.692963,349.234680 259.845337,351.940796 256.060547,352.227295 
	C255.750305,352.250763 255.275635,352.411774 255.180710,352.636841 
	C251.493942,361.378876 240.186523,363.054108 236.960922,372.311340 
	C236.425751,373.847260 234.887909,375.390045 233.412018,376.171753 
	C229.721848,378.126160 226.170029,379.777710 224.511734,384.245148 
	C224.044449,385.504089 220.702377,386.129944 218.629944,386.258698 
	C215.417038,386.458374 212.160538,385.806763 208.925430,385.836151 
	C204.725784,385.874237 201.329758,384.919342 199.995056,379.975403 
M306.888000,165.371841 
	C303.834106,167.858765 301.148499,171.381821 297.652374,172.624573 
	C289.484375,175.527939 286.487885,184.009964 279.537994,188.023956 
	C278.719482,188.496704 278.156464,189.452271 277.547089,190.239807 
	C274.533478,194.134460 271.511108,198.023071 268.554626,201.960968 
	C264.895081,206.835312 261.099030,211.623856 257.722198,216.689606 
	C253.332733,223.274445 249.254730,230.069275 245.123474,236.823151 
	C241.722626,242.382919 238.077454,247.836777 235.212112,253.667603 
	C232.650970,258.879364 231.544403,264.825378 228.843216,269.944672 
	C223.875473,279.359589 219.065460,288.600403 217.846466,299.514069 
	C217.439774,303.155365 213.091492,306.210907 212.046112,309.953491 
	C208.769272,321.684784 204.354736,333.379242 205.227692,345.767212 
	C205.572601,350.661774 207.917343,355.672699 210.395721,360.037750 
	C211.440079,361.877136 215.192139,362.165070 217.696106,363.200012 
	C218.293854,363.447052 219.047348,363.724731 219.347916,364.219788 
	C222.097107,368.748260 224.605011,366.436676 226.625900,363.754150 
	C228.367661,361.442139 230.081512,358.832306 230.783600,356.091797 
	C231.484695,353.355072 232.410690,352.052185 235.291763,351.935699 
	C238.557770,351.803680 240.766159,350.403961 242.812057,347.317230 
	C245.076828,343.900269 249.067291,341.628998 252.298523,338.849854 
	C253.650284,337.687256 255.400558,336.743195 256.244995,335.281219 
	C258.832123,330.802155 260.938080,326.045593 263.513794,321.559204 
	C264.371674,320.064972 265.926208,318.276215 267.433197,317.974335 
	C272.774872,316.904175 275.125397,313.974731 277.513489,308.908203 
	C281.429443,300.600311 288.780457,294.483826 295.571747,288.196167 
	C302.377625,281.895020 309.309692,275.640167 315.396362,268.674652 
	C323.083099,259.877960 326.311066,247.383499 337.756897,241.621078 
	C338.262238,241.366653 338.416718,240.486038 338.839203,239.985275 
	C342.230072,235.966156 345.633636,231.957565 349.062286,227.970673 
	C350.023712,226.852722 351.573395,225.986603 352.010040,224.715347 
	C353.911835,219.178833 358.010529,216.005371 363.124756,213.994781 
	C367.012512,212.466385 368.867401,209.919006 369.066864,205.739487 
	C369.251068,201.879166 370.891052,199.100418 375.416229,198.891418 
	C376.733337,198.830582 378.401276,198.007782 379.213013,196.983276 
	C381.360687,194.272644 383.141083,191.269165 385.043762,188.366592 
	C389.316284,181.848770 393.522095,175.286057 397.892059,168.834381 
	C398.584900,167.811554 399.886932,166.948334 401.084686,166.563812 
	C406.592682,164.795502 408.139069,161.039871 408.203369,155.479050 
	C408.244354,151.937027 409.355072,147.602280 411.622314,145.113663 
	C413.970764,142.535965 415.006989,139.558929 413.663757,137.667694 
	C410.010345,132.523697 406.222748,126.161514 400.931244,123.856163 
	C395.409027,121.450333 387.869202,121.367134 381.815399,125.634979 
	C378.491913,127.977989 374.955536,128.745300 370.982666,127.074425 
	C369.766205,126.562813 367.927032,126.357666 366.833801,126.915367 
	C359.025726,130.898636 351.337372,135.116501 343.609833,139.257706 
	C340.183990,141.093643 336.620789,142.714706 333.359680,144.806976 
	C328.365570,148.011078 323.445831,151.365540 318.744904,154.981674 
	C314.777222,158.033768 311.165466,161.548630 306.888000,165.371841 
z"/>
<path fill="#A4E9BD" opacity="1.000000" stroke="none" 
	d="
M503.345825,135.736847 
	C504.796570,134.946808 506.108978,134.505707 507.421448,134.064606 
	C507.766388,135.684586 508.475555,137.346558 508.295807,138.906082 
	C508.211456,139.637772 506.413971,140.171982 505.392853,140.795685 
	C504.664429,139.225723 503.935974,137.655746 503.345825,135.736847 
z"/>
<path fill="#A0E8B9" opacity="1.000000" stroke="none" 
	d="
M542.225403,994.356567 
	C546.175354,996.224121 549.881165,997.736023 553.285767,999.755798 
	C555.622986,1001.142395 557.863159,1002.971008 559.579956,1005.066345 
	C563.062378,1009.316467 561.774231,1012.197754 556.205078,1012.859314 
	C549.714355,1013.630249 543.758057,1013.534546 540.957031,1005.665100 
	C539.659241,1002.019043 536.820312,998.921387 534.680115,995.575134 
	C535.020691,995.122559 535.361267,994.670044 535.701843,994.217468 
	C537.752197,994.217468 539.802490,994.217468 542.225403,994.356567 
z"/>
<path fill="#A0E8B9" opacity="1.000000" stroke="none" 
	d="
M586.726074,945.816223 
	C583.693115,949.149353 580.555969,948.201782 577.085632,947.052185 
	C580.921204,942.276367 584.356384,941.822876 586.726074,945.816223 
z"/>
<path fill="#BBEFCE" opacity="1.000000" stroke="none" 
	d="
M307.142090,165.115250 
	C311.165466,161.548630 314.777222,158.033768 318.744904,154.981674 
	C323.445831,151.365540 328.365570,148.011078 333.359680,144.806976 
	C336.620789,142.714706 340.183990,141.093643 343.609833,139.257706 
	C351.337372,135.116501 359.025726,130.898636 366.833801,126.915367 
	C367.927032,126.357666 369.766205,126.562813 370.982666,127.074425 
	C374.955536,128.745300 378.491913,127.977989 381.815399,125.634979 
	C387.869202,121.367134 395.409027,121.450333 400.931244,123.856163 
	C406.222748,126.161514 410.010345,132.523697 413.663757,137.667694 
	C415.006989,139.558929 413.970764,142.535965 411.622314,145.113663 
	C409.355072,147.602280 408.244354,151.937027 408.203369,155.479050 
	C408.139069,161.039871 406.592682,164.795502 401.084686,166.563812 
	C399.886932,166.948334 398.584900,167.811554 397.892059,168.834381 
	C393.522095,175.286057 389.316284,181.848770 385.043762,188.366592 
	C383.141083,191.269165 381.360687,194.272644 379.213013,196.983276 
	C378.401276,198.007782 376.733337,198.830582 375.416229,198.891418 
	C370.891052,199.100418 369.251068,201.879166 369.066864,205.739487 
	C368.867401,209.919006 367.012512,212.466385 363.124756,213.994781 
	C358.010529,216.005371 353.911835,219.178833 352.010040,224.715347 
	C351.573395,225.986603 350.023712,226.852722 349.062286,227.970673 
	C345.633636,231.957565 342.230072,235.966156 338.839203,239.985275 
	C338.416718,240.486038 338.262238,241.366653 337.756897,241.621078 
	C326.311066,247.383499 323.083099,259.877960 315.396362,268.674652 
	C309.309692,275.640167 302.377625,281.895020 295.571747,288.196167 
	C288.780457,294.483826 281.429443,300.600311 277.513489,308.908203 
	C275.125397,313.974731 272.774872,316.904175 267.433197,317.974335 
	C265.926208,318.276215 264.371674,320.064972 263.513794,321.559204 
	C260.938080,326.045593 258.832123,330.802155 256.244995,335.281219 
	C255.400558,336.743195 253.650284,337.687256 252.298523,338.849854 
	C249.067291,341.628998 245.076828,343.900269 242.812057,347.317230 
	C240.766159,350.403961 238.557770,351.803680 235.291763,351.935699 
	C232.410690,352.052185 231.484695,353.355072 230.783600,356.091797 
	C230.081512,358.832306 228.367661,361.442139 226.625900,363.754150 
	C224.605011,366.436676 222.097107,368.748260 219.347916,364.219788 
	C219.047348,363.724731 218.293854,363.447052 217.696106,363.200012 
	C215.192139,362.165070 211.440079,361.877136 210.395721,360.037750 
	C207.917343,355.672699 205.572601,350.661774 205.227692,345.767212 
	C204.354736,333.379242 208.769272,321.684784 212.046112,309.953491 
	C213.091492,306.210907 217.439774,303.155365 217.846466,299.514069 
	C219.065460,288.600403 223.875473,279.359589 228.843216,269.944672 
	C231.544403,264.825378 232.650970,258.879364 235.212112,253.667603 
	C238.077454,247.836777 241.722626,242.382919 245.123474,236.823151 
	C249.254730,230.069275 253.332733,223.274445 257.722198,216.689606 
	C261.099030,211.623856 264.895081,206.835312 268.554626,201.960968 
	C271.511108,198.023071 274.533478,194.134460 277.547089,190.239807 
	C278.156464,189.452271 278.719482,188.496704 279.537994,188.023956 
	C286.487885,184.009964 289.484375,175.527939 297.652374,172.624573 
	C301.148499,171.381821 303.834106,167.858765 307.142090,165.115250 
M222.153320,314.660095 
	C221.806595,317.260529 221.459869,319.860962 221.113144,322.461395 
	C221.741409,322.912720 222.369675,323.364044 222.997940,323.815369 
	C224.941193,316.327911 229.183884,317.394501 234.428635,318.639587 
	C239.802155,319.915314 245.345413,319.350922 248.652496,313.283844 
	C249.506195,311.717651 252.097168,311.134460 253.823792,309.998871 
	C255.999268,308.568054 257.985718,306.803497 260.273529,305.601288 
	C263.265076,304.029297 264.759460,302.401306 262.416016,299.094360 
	C262.109039,298.661194 263.095947,296.466980 263.717896,296.351593 
	C269.363586,295.304138 272.208313,290.321533 276.516724,287.649841 
	C284.128174,282.929901 287.862762,275.232697 293.508026,269.047211 
	C298.523804,263.551392 303.715485,258.215363 308.876190,252.853729 
	C309.293549,252.420135 310.174316,252.459839 310.662689,252.062180 
	C312.054688,250.928665 313.477173,249.789307 314.650635,248.445282 
	C315.492188,247.481415 315.678619,245.832764 316.627777,245.094040 
	C322.403900,240.598267 326.821442,235.178619 329.174957,228.159088 
	C329.472778,227.270874 330.190308,226.005478 330.908112,225.857132 
	C337.154968,224.566147 339.361481,219.917419 340.854584,214.514771 
	C341.056030,213.785843 341.805420,213.155762 342.411102,212.599686 
	C346.006409,209.298691 349.222870,205.921616 348.181610,200.330902 
	C348.014984,199.436218 349.410034,198.168793 350.221344,197.188049 
	C353.702789,192.979706 358.669678,189.579193 357.162567,182.828751 
	C356.955109,181.899506 358.333740,180.128891 359.416992,179.475189 
	C368.778015,173.826263 371.334869,165.732361 367.317688,156.644165 
	C362.655548,155.516647 358.805237,154.369415 354.872711,153.719803 
	C352.701538,153.361160 350.125153,153.220276 348.197021,154.055756 
	C342.964417,156.323120 338.189331,160.610550 332.840698,161.383514 
	C327.122345,162.209930 323.540436,164.891571 319.793671,168.432953 
	C317.643311,170.465485 315.154266,172.153595 312.743866,173.894531 
	C305.545105,179.093857 297.423676,183.375626 291.308563,189.626068 
	C283.275726,197.836685 276.821747,207.590057 269.665710,216.661804 
	C268.044769,218.716705 266.056061,220.530289 264.706451,222.741669 
	C260.015289,230.428436 255.531769,238.241898 250.964432,246.004333 
	C250.711945,246.433426 250.403625,246.829300 250.141907,247.253357 
	C247.977493,250.760147 245.049530,254.018402 243.802933,257.826599 
	C240.255112,268.664795 232.657852,277.462860 229.694473,288.767700 
	C227.500137,297.138763 221.235535,304.413269 222.153320,314.660095 
z"/>
<path fill="#C2F0D3" opacity="1.000000" stroke="none" 
	d="
M222.318634,314.280334 
	C221.235535,304.413269 227.500137,297.138763 229.694473,288.767700 
	C232.657852,277.462860 240.255112,268.664795 243.802933,257.826599 
	C245.049530,254.018402 247.977493,250.760147 250.141907,247.253357 
	C250.403625,246.829300 250.711945,246.433426 250.964432,246.004333 
	C255.531769,238.241898 260.015289,230.428436 264.706451,222.741669 
	C266.056061,220.530289 268.044769,218.716705 269.665710,216.661804 
	C276.821747,207.590057 283.275726,197.836685 291.308563,189.626068 
	C297.423676,183.375626 305.545105,179.093857 312.743866,173.894531 
	C315.154266,172.153595 317.643311,170.465485 319.793671,168.432953 
	C323.540436,164.891571 327.122345,162.209930 332.840698,161.383514 
	C338.189331,160.610550 342.964417,156.323120 348.197021,154.055756 
	C350.125153,153.220276 352.701538,153.361160 354.872711,153.719803 
	C358.805237,154.369415 362.655548,155.516647 367.317688,156.644165 
	C371.334869,165.732361 368.778015,173.826263 359.416992,179.475189 
	C358.333740,180.128891 356.955109,181.899506 357.162567,182.828751 
	C358.669678,189.579193 353.702789,192.979706 350.221344,197.188049 
	C349.410034,198.168793 348.014984,199.436218 348.181610,200.330902 
	C349.222870,205.921616 346.006409,209.298691 342.411102,212.599686 
	C341.805420,213.155762 341.056030,213.785843 340.854584,214.514771 
	C339.361481,219.917419 337.154968,224.566147 330.908112,225.857132 
	C330.190308,226.005478 329.472778,227.270874 329.174957,228.159088 
	C326.821442,235.178619 322.403900,240.598267 316.627777,245.094040 
	C315.678619,245.832764 315.492188,247.481415 314.650635,248.445282 
	C313.477173,249.789307 312.054688,250.928665 310.662689,252.062180 
	C310.174316,252.459839 309.293549,252.420135 308.876190,252.853729 
	C303.715485,258.215363 298.523804,263.551392 293.508026,269.047211 
	C287.862762,275.232697 284.128174,282.929901 276.516724,287.649841 
	C272.208313,290.321533 269.363586,295.304138 263.717896,296.351593 
	C263.095947,296.466980 262.109039,298.661194 262.416016,299.094360 
	C264.759460,302.401306 263.265076,304.029297 260.273529,305.601288 
	C257.985718,306.803497 255.999268,308.568054 253.823792,309.998871 
	C252.097168,311.134460 249.506195,311.717651 248.652496,313.283844 
	C245.345413,319.350922 239.802155,319.915314 234.428635,318.639587 
	C229.183884,317.394501 224.941193,316.327911 222.997940,323.815369 
	C222.369675,323.364044 221.741409,322.912720 221.113144,322.461395 
	C221.459869,319.860962 221.806595,317.260529 222.318634,314.280334 
z"/>
</svg>